<svg width="210" height="93" viewBox="0 0 210 93" fill="none" xmlns="http://www.w3.org/2000/svg">
<path d="M9.45205 86.4256L0 92.5H210V0.0826416L200.548 13.9669L193.973 15.2686L189.452 22.6446L181.644 14.4008L176.712 3.11983L171.37 11.7975L163.151 17.8719L156.164 13.9669L149.589 19.6074L147.123 26.9835L138.082 33.0578L135.205 38.2645L128.219 30.0207L120.822 29.1529L114.247 33.0578L108.904 25.2479H103.562L96.9863 22.2107L91.6438 36.9628H85.4795L83.0137 45.6405H80.137L78.4932 52.1488H74.3836L65.3425 45.6405L62.4658 54.3182H59.1781L57.5342 59.0909L43.5616 49.1116L41.0959 52.5826L35.3425 53.8843L29.1781 52.1488L25.8904 67.3347H22.6027L18.9041 72.9752L16.4384 70.8058L9.45205 86.4256Z" fill="url(#paint0_linear_1_1778)"/>
<defs>
<linearGradient id="paint0_linear_1_1778" x1="105" y1="0.0826416" x2="105" y2="92.5" gradientUnits="userSpaceOnUse">
<stop stop-color="#6334FE" stop-opacity="0.18"/>
<stop offset="1" stop-color="#6334FE" stop-opacity="0"/>
</linearGradient>
</defs>
</svg>
